<svg xmlns="http://www.w3.org/2000/svg" width="1380" height="690" viewBox="0 0 1380 690" font-family="-apple-system, BlinkMacSystemFont, Segoe UI, Helvetica, Arial, sans-serif">
<defs>
  <!-- All arrow markers use refX=10: the path tip (10,5) lands exactly at the
       line endpoint, the body extends back into the line. This keeps
       arrowheads from poking past the line endpoint into adjacent shapes. -->
  <marker id="arrow" viewBox="0 0 10 10" refX="10" refY="5" markerWidth="9" markerHeight="9" orient="auto">
    <path d="M0 0 L10 5 L0 10 z" fill="#1f2937"/>
  </marker>
  <marker id="arrow-start" viewBox="0 0 10 10" refX="10" refY="5" markerWidth="9" markerHeight="9" orient="auto-start-reverse">
    <path d="M0 0 L10 5 L0 10 z" fill="#1f2937"/>
  </marker>
  <!-- Soft slate markers for the Store↔Pool arrows: less visually loud than
       pure black/slate-800, sits closer to the muted text palette. -->
  <marker id="arrow-soft" viewBox="0 0 10 10" refX="10" refY="5" markerWidth="9" markerHeight="9" orient="auto">
    <path d="M0 0 L10 5 L0 10 z" fill="#64748b"/>
  </marker>
  <marker id="arrow-soft-start" viewBox="0 0 10 10" refX="10" refY="5" markerWidth="9" markerHeight="9" orient="auto-start-reverse">
    <path d="M0 0 L10 5 L0 10 z" fill="#64748b"/>
  </marker>
  <marker id="arrow-pd" viewBox="0 0 10 10" refX="10" refY="5" markerWidth="9" markerHeight="9" orient="auto">
    <path d="M0 0 L10 5 L0 10 z" fill="#dc2626"/>
  </marker>
  <marker id="arrow-pd-start" viewBox="0 0 10 10" refX="10" refY="5" markerWidth="9" markerHeight="9" orient="auto-start-reverse">
    <path d="M0 0 L10 5 L0 10 z" fill="#dc2626"/>
  </marker>
  <marker id="arrow-kv" viewBox="0 0 10 10" refX="10" refY="5" markerWidth="8" markerHeight="8" orient="auto">
    <path d="M0 0 L10 5 L0 10 z" fill="#7c3aed"/>
  </marker>
  <marker id="arrow-kv-start" viewBox="0 0 10 10" refX="10" refY="5" markerWidth="8" markerHeight="8" orient="auto-start-reverse">
    <path d="M0 0 L10 5 L0 10 z" fill="#7c3aed"/>
  </marker>
</defs>
<rect x="0" y="0" width="1380" height="690" rx="0" fill="#ffffff" stroke="#ffffff" stroke-width="0"/>
<rect x="180" y="50" width="440" height="460" rx="20" fill="#f8fafc" stroke="#1f2937" stroke-width="2.5"/>
<rect x="290.0" y="72" width="220" height="60" rx="14" fill="#fcd34d" stroke="#1f2937" stroke-width="2"/>
<text x="400.0" y="110.0" text-anchor="middle" font-size="22" font-weight="700" fill="#0f172a">Prefill Instance</text>
<rect x="205" y="224" width="390" height="250" rx="16" fill="#e9d5ff" stroke="#1f2937" stroke-width="2.5"/>
<text x="400.0" y="252" text-anchor="middle" font-size="17" font-weight="700" fill="#0f172a">MultiConnector</text>
<rect x="290.0" y="144" width="220" height="50" rx="10" fill="#fdba74" stroke="#1f2937" stroke-width="2.2"/>
<text x="400.0" y="176.0" text-anchor="middle" font-size="19" font-weight="700" fill="#0f172a">KV Block</text>
<rect x="225" y="299" width="167.0" height="140" rx="12" fill="#bbf7d0" stroke="#1f2937" stroke-width="2"/>
<text x="308.5" y="365.0" text-anchor="middle" font-size="18" font-weight="700" fill="#0f172a">MooncakeStore</text>
<text x="308.5" y="391.0" text-anchor="middle" font-size="18" font-weight="700" fill="#0f172a">Connector</text>
<rect x="408.0" y="299" width="167.0" height="140" rx="12" fill="#bfdbfe" stroke="#1f2937" stroke-width="2"/>
<text x="491.5" y="378.0" text-anchor="middle" font-size="20" font-weight="700" fill="#0f172a">PD Connector</text>
<rect x="800" y="50" width="440" height="460" rx="20" fill="#f8fafc" stroke="#1f2937" stroke-width="2.5"/>
<rect x="910.0" y="72" width="220" height="60" rx="14" fill="#fcd34d" stroke="#1f2937" stroke-width="2"/>
<text x="1020.0" y="110.0" text-anchor="middle" font-size="22" font-weight="700" fill="#0f172a">Decode Instance</text>
<rect x="825" y="224" width="390" height="250" rx="16" fill="#e9d5ff" stroke="#1f2937" stroke-width="2.5"/>
<text x="1020.0" y="252" text-anchor="middle" font-size="17" font-weight="700" fill="#0f172a">MultiConnector</text>
<rect x="910.0" y="144" width="220" height="50" rx="10" fill="#fdba74" stroke="#1f2937" stroke-width="2.2"/>
<text x="1020.0" y="176.0" text-anchor="middle" font-size="19" font-weight="700" fill="#0f172a">KV Block</text>
<rect x="845" y="299" width="167.0" height="140" rx="12" fill="#bfdbfe" stroke="#1f2937" stroke-width="2"/>
<text x="928.5" y="378.0" text-anchor="middle" font-size="20" font-weight="700" fill="#0f172a">PD Connector</text>
<rect x="1028.0" y="299" width="167.0" height="140" rx="12" fill="#bbf7d0" stroke="#1f2937" stroke-width="2"/>
<text x="1111.5" y="365.0" text-anchor="middle" font-size="18" font-weight="700" fill="#0f172a">MooncakeStore</text>
<text x="1111.5" y="391.0" text-anchor="middle" font-size="18" font-weight="700" fill="#0f172a">Connector</text>
<line x1="351.6" y1="198" x2="308.5" y2="295" stroke="#7c3aed" stroke-width="2.4" marker-start="url(#arrow-kv-start)" marker-end="url(#arrow-kv)"/>
<line x1="448.4" y1="198" x2="491.5" y2="295" stroke="#7c3aed" stroke-width="2.4" marker-start="url(#arrow-kv-start)" marker-end="url(#arrow-kv)"/>
<line x1="971.6" y1="198" x2="928.5" y2="295" stroke="#7c3aed" stroke-width="2.4" marker-start="url(#arrow-kv-start)" marker-end="url(#arrow-kv)"/>
<line x1="1068.4" y1="198" x2="1111.5" y2="295" stroke="#7c3aed" stroke-width="2.4" marker-start="url(#arrow-kv-start)" marker-end="url(#arrow-kv)"/>
<line x1="579.0" y1="369.0" x2="841" y2="369.0" stroke="#dc2626" stroke-width="2.5" marker-start="url(#arrow-pd-start)" marker-end="url(#arrow-pd)"/>
<text x="710.0" y="353.0" text-anchor="middle" font-size="16" font-weight="700" fill="#dc2626" style="paint-order: stroke; stroke: #ffffff; stroke-width: 8px; stroke-linejoin: round;">MooncakePD / NIXL Connector</text>
<text x="710.0" y="397.0" text-anchor="middle" font-size="14" font-weight="600" fill="#64748b" style="paint-order: stroke; stroke: #ffffff; stroke-width: 8px; stroke-linejoin: round;">Multi-Node NVLink / RDMA</text>
<rect x="180" y="560" width="1060" height="100" rx="20" fill="#fed7aa" stroke="#1f2937" stroke-width="2.5"/>
<text x="710.0" y="618.0" text-anchor="middle" font-size="24" font-weight="700" fill="#0f172a">Mooncake Distributed KV Cache Pool</text>
<line x1="308.5" y1="443" x2="308.5" y2="556" stroke="#64748b" stroke-width="2.5" marker-start="url(#arrow-soft-start)" marker-end="url(#arrow-soft)"/>
<text x="326.5" y="541.0" text-anchor="start" font-size="17" font-weight="700" fill="#0f172a" style="paint-order: stroke; stroke: #ffffff; stroke-width: 6px; stroke-linejoin: round;">put / get</text>
<line x1="1111.5" y1="443" x2="1111.5" y2="556" stroke="#64748b" stroke-width="2.5" marker-end="url(#arrow-soft)"/>
<text x="1129.5" y="541.0" text-anchor="start" font-size="17" font-weight="700" fill="#0f172a" style="paint-order: stroke; stroke: #ffffff; stroke-width: 6px; stroke-linejoin: round;">put</text>
<path d="M 166 299 L 162 299 Q 150 299, 150 311 L 150 427 Q 150 439, 162 439 L 166 439" fill="none" stroke="#64748b" stroke-width="2.6" stroke-linecap="round" stroke-linejoin="round"/>
<text x="132" y="357.0" text-anchor="end" font-size="17" font-weight="700" fill="#64748b">a chain of</text>
<text x="132" y="383.0" text-anchor="end" font-size="17" font-weight="700" fill="#64748b">connectors</text>
</svg>